<svg width="314" height="294" viewBox="0 0 314 294" fill="none" xmlns="http://www.w3.org/2000/svg">
<rect width="314" height="294" rx="30" fill="#4F96FF"/>
<path d="M90.9204 78.4014C90.9204 78.4014 130.564 68.3849 156.401 101.91C182.239 70.225 223.263 78.4014 223.263 78.4014V99.0481H242V215.365C242 215.365 196.637 201.873 156.401 217C126.422 200.442 71 215.365 71 215.365V100.888H90.9204V78.4014Z" fill="white"/>
<path d="M156.401 101.91C130.564 68.3849 90.9204 78.4014 90.9204 78.4014V100.888M156.401 101.91C182.239 70.225 223.263 78.4014 223.263 78.4014V99.0481M156.401 101.91V209.437M156.401 209.437C190.325 183.884 223.263 187.359 223.263 187.359V99.0481M156.401 209.437C135.495 188.381 90.9204 187.359 90.9204 187.359V100.888M156.401 209.437V217M156.401 217C126.422 200.442 71 215.365 71 215.365V100.888H90.9204M156.401 217C196.637 201.873 242 215.365 242 215.365V99.0481H223.263" stroke="#4F96FF" stroke-width="10"/>
</svg>
