<svg xmlns="http://www.w3.org/2000/svg" version="1.1" xmlns:xlink="http://www.w3.org/1999/xlink" xmlns:svgjs="http://svgjs.com/svgjs" width="1920" height="1080" preserveAspectRatio="none" viewBox="0 0 1920 1080"><g mask="url(&quot;#SvgjsMask1082&quot;)" fill="none"><rect width="1920" height="1080" x="0" y="0" fill="rgba(64, 135, 240, 1)"></rect><path d="M0,567.282C127.025,585.918,262.827,645.389,376.868,586.419C491.926,526.923,557.001,393.029,582.558,266.045C605.856,150.286,547.935,38.422,509.639,-73.275C478.018,-165.503,436.818,-249.876,378.805,-328.237C316.421,-412.502,259.016,-510.516,160.134,-545.367C59.751,-580.747,-51.454,-552.102,-151.232,-515.05C-246.288,-479.752,-316.325,-407.018,-392.539,-340.137C-481.269,-262.273,-614.467,-207.572,-634.239,-91.19C-653.98,25.009,-545.717,120.076,-488.204,222.955C-435.723,316.833,-399.815,423.374,-311.924,485.363C-222.259,548.603,-108.561,551.355,0,567.282" fill="#1268e7"></path><path d="M1920 1634.7649999999999C2032.931 1643.528 2150.913 1648.251 2250.446 1594.184 2353.302 1538.312 2418.692 1436.094 2474.826 1333.381 2534.438 1224.304 2607.741 1106.526 2583.6 984.5889999999999 2559.647 863.6030000000001 2429.784 801.4359999999999 2350.765 706.74 2269.828 609.746 2234.906 455.91700000000003 2113.451 421.16700000000003 1991.951 386.405 1876.547 487.13300000000004 1760.842 537.957 1660.109 582.204 1562.249 625.5319999999999 1480.516 699.185 1389.754 780.975 1302.183 869.623 1264.004 985.682 1221.6979999999999 1114.285 1182.5990000000002 1269.369 1255.399 1383.513 1328.536 1498.185 1493.724 1497.241 1620.946 1545.337 1720.281 1582.891 1814.121 1626.549 1920 1634.7649999999999" fill="#73a7f4"></path></g><defs><mask id="SvgjsMask1082"><rect width="1920" height="1080" fill="#ffffff"></rect></mask></defs></svg>