<svg width="314" height="294" viewBox="0 0 314 294" fill="none" xmlns="http://www.w3.org/2000/svg">
<rect width="314" height="294" rx="30" fill="#4F96FF"/>
<path d="M190.959 126.154C190.959 157.167 165.896 182.307 134.98 182.307C104.063 182.307 79 157.167 79 126.154C79 95.1409 104.063 70 134.98 70C165.896 70 190.959 95.1409 190.959 126.154ZM94.9547 126.154C94.9547 148.328 112.874 166.303 134.98 166.303C157.085 166.303 175.004 148.328 175.004 126.154C175.004 103.98 157.085 86.0043 134.98 86.0043C112.874 86.0043 94.9547 103.98 94.9547 126.154Z" fill="white"/>
<line y1="-10" x2="77.8658" y2="-10" transform="matrix(0.719581 0.694409 -0.692171 0.721733 162.969 165.929)" stroke="white" stroke-width="20"/>
</svg>
