<svg data-v-423bf9ae="" xmlns="http://www.w3.org/2000/svg" viewBox="0 0 471 104" class="iconLeftSlogan"><!----><!----><!----><g data-v-423bf9ae="" id="0e4a3231-953e-4215-b212-1c9d97078e04" fill="black" transform="matrix(6.423982764430195,0,0,6.423982764430195,116.5648696664361,-8.28693656738514)"><path d="M1.43 10.50L0.67 10.50L0.67 1.33L1.41 1.33L3.39 6.47L3.60 6.47L5.57 1.33L6.31 1.33L6.31 10.50L5.56 10.50L5.56 3.39L5.50 3.39L4.03 7.18L2.95 7.18L1.48 3.37L1.43 3.37L1.43 10.50ZM7.83 7.20L7.83 7.20L7.83 7.20Q7.83 3.77 10.50 3.77L10.50 3.77L10.50 3.77Q13.17 3.77 13.17 7.20L13.17 7.20L13.17 7.20Q13.17 10.63 10.50 10.63L10.50 10.63L10.50 10.63Q7.83 10.63 7.83 7.20ZM10.50 4.49L10.50 4.49L10.50 4.49Q8.62 4.49 8.62 7.20L8.62 7.20L8.62 7.20Q8.62 9.90 10.50 9.90L10.50 9.90L10.50 9.90Q12.38 9.90 12.38 7.20L12.38 7.20L12.38 7.20Q12.38 4.49 10.50 4.49ZM15.06 3.85L15.78 3.85L15.81 4.41L15.81 4.41Q17.16 3.77 18.06 3.77L18.06 3.77L18.06 3.77Q18.96 3.77 19.47 4.38L19.47 4.38L19.47 4.38Q19.98 5.00 19.98 6.06L19.98 6.06L19.98 10.50L19.24 10.50L19.24 6.06L19.24 6.06Q19.24 5.38 18.90 4.93L18.90 4.93L18.90 4.93Q18.56 4.49 17.89 4.49L17.89 4.49L17.89 4.49Q17.22 4.49 15.81 5.11L15.81 5.11L15.81 10.50L15.06 10.50L15.06 3.85ZM24.35 4.55L22.72 4.55L22.72 3.85L25.09 3.85L25.09 9.80L26.71 9.80L26.71 10.50L22.61 10.50L22.61 9.80L24.35 9.80L24.35 4.55ZM24.65 2.51L24.65 2.51L24.65 2.51Q24.40 2.51 24.23 2.33L24.23 2.33L24.23 2.33Q24.05 2.16 24.05 1.88L24.05 1.88L24.05 1.88Q24.05 1.61 24.23 1.45L24.23 1.45L24.23 1.45Q24.40 1.29 24.65 1.29L24.65 1.29L24.65 1.29Q24.91 1.29 25.07 1.44L25.07 1.44L25.07 1.44Q25.23 1.60 25.23 1.88L25.23 1.88L25.23 1.88Q25.23 2.16 25.07 2.33L25.07 2.33L25.07 2.33Q24.91 2.51 24.65 2.51ZM31.09 2.04L28.67 2.04L28.67 1.33L34.30 1.33L34.30 2.04L31.86 2.04L31.86 10.50L31.09 10.50L31.09 2.04ZM35.83 7.20L35.83 7.20L35.83 7.20Q35.83 3.77 38.50 3.77L38.50 3.77L38.50 3.77Q41.17 3.77 41.17 7.20L41.17 7.20L41.17 7.20Q41.17 10.63 38.50 10.63L38.50 10.63L38.50 10.63Q35.83 10.63 35.83 7.20ZM38.50 4.49L38.50 4.49L38.50 4.49Q36.62 4.49 36.62 7.20L36.62 7.20L36.62 7.20Q36.62 9.90 38.50 9.90L38.50 9.90L38.50 9.90Q40.38 9.90 40.38 7.20L40.38 7.20L40.38 7.20Q40.38 4.49 38.50 4.49ZM47.95 10.50L47.24 10.50L47.21 9.93L47.21 9.93Q45.86 10.63 44.97 10.63L44.97 10.63L44.97 10.63Q44.07 10.63 43.55 10.01L43.55 10.01L43.55 10.01Q43.04 9.39 43.04 8.33L43.04 8.33L43.04 3.85L43.78 3.85L43.78 8.33L43.78 8.33Q43.78 9.02 44.11 9.46L44.11 9.46L44.11 9.46Q44.44 9.90 45.11 9.90L45.11 9.90L45.11 9.90Q45.78 9.90 47.21 9.20L47.21 9.20L47.21 3.85L47.95 3.85L47.95 10.50ZM51.59 4.55L50.27 4.55L50.27 3.85L52.33 3.85L52.36 4.66L52.36 4.66Q52.81 4.38 53.62 4.10L53.62 4.10L53.62 4.10Q54.43 3.82 55.05 3.77L55.05 3.77L55.05 4.59L55.05 4.59Q54.47 4.63 53.63 4.87L53.63 4.87L53.63 4.87Q52.78 5.11 52.36 5.36L52.36 5.36L52.36 9.80L54.60 9.80L54.60 10.50L50.27 10.50L50.27 9.80L51.59 9.80L51.59 4.55Z"></path></g><!----><g data-v-423bf9ae="" id="ed5e074c-c1a2-48cd-b157-74fd1f4d0f74" transform="matrix(1.0730730692545574,0,0,1.0730730692545574,-2.6536821168701934,-0.9419155333268208)" stroke="none" fill="black"><path d="M65.454 3.129c-.026-.735-.647-1.442-1.385-1.417l-13.348.473c-.738.026-1.307.858-1.281 1.597l.321 9.046 16.017-.569-.324-9.13zM49.952 18.166l16.016-.566 2.452 69.408-16.017.566zM52.745 97.213c.026.73.636 1.096 1.375 1.074l13.348-.475c.738-.026 1.317-.517 1.292-1.252l-.149-4.216-16.016.563.15 4.306zM3 96.743c0 .735.597 1.336 1.335 1.336H17.69c.738 0 1.336-.601 1.336-1.336V39.314H3v57.429zM19.027 13.938c0-.738-.598-1.335-1.336-1.335H4.336c-.738 0-1.336.598-1.336 1.335v9.349h16.027v-9.349zM45.738 24.753c0-.738-.597-1.335-1.335-1.335H25.705c-.738 0-1.335.597-1.335 1.335v9.219h21.369v-9.219zM24.37 44.657v52.086c0 .735.597 1.336 1.335 1.336h18.698c.738 0 1.335-.601 1.335-1.336V44.657H24.37zM81.102 96.926a1.335 1.335 0 0 0 1.513 1.138l13.22-1.879c.73-.104 1.252-.673 1.153-1.408l-8.833-62.25-15.87 2.254 8.817 62.145zM86.09 17.979a1.33 1.33 0 0 0-1.508-1.132l-13.225 1.875c-.73.102-1.252.673-1.148 1.403l1.325 9.362 15.87-2.251-1.314-9.257z"></path></g><!----><g data-v-423bf9ae="" id="9c9be863-b6b8-441d-a992-4caf14bf27d5" fill="black" transform="matrix(0.40309960564497876,0,0,0.40309960564497876,120.41342553693184,59.15349013589301)"><path d="M7.95 3.22L7.95 2.21L1.13 2.21L1.13 11.48L7.95 11.48L7.95 10.47L2.18 10.47L2.18 7.35L7.34 7.35L7.34 6.33L2.18 6.33L2.18 3.22ZM23.59 2.21L23.59 10.01L17.86 2.21L16.65 2.21L16.65 11.48L17.70 11.48L17.70 3.65L23.42 11.48L24.64 11.48L24.64 2.21ZM37.88 10.57C35.63 10.57 34.37 8.93 34.37 6.85C34.37 4.76 35.63 3.12 37.88 3.12C39.41 3.12 40.42 3.85 40.89 4.98L42 4.98C41.41 3.29 39.90 2.10 37.80 2.10C35.01 2.10 33.32 4.21 33.32 6.85C33.32 9.48 35.01 11.59 37.80 11.59C39.90 11.59 41.41 10.40 42 8.71L40.89 8.71C40.42 9.84 39.41 10.57 37.88 10.57ZM57.29 2.21L57.29 7.52C57.29 9.67 55.86 10.57 54.39 10.57C52.92 10.57 51.51 9.67 51.51 7.52L51.51 2.21L50.46 2.21L50.46 7.49C50.46 9.95 52.08 11.59 54.39 11.59C56.71 11.59 58.34 9.94 58.34 7.49L58.34 2.21ZM74.31 3.22L74.31 2.21L67.49 2.21L67.49 11.48L74.31 11.48L74.31 10.47L68.54 10.47L68.54 7.35L73.70 7.35L73.70 6.33L68.54 6.33L68.54 3.22ZM89.95 2.21L89.95 10.01L84.22 2.21L83.01 2.21L83.01 11.48L84.06 11.48L84.06 3.65L89.78 11.48L91 11.48L91 2.21ZM106.85 2.21L99.33 2.21L99.33 3.22L102.56 3.22L102.56 11.48L103.61 11.48L103.61 3.22L106.85 3.22ZM116.23 7.92L119.45 7.92L121.69 11.48L122.93 11.48L120.50 7.74C121.53 7.50 122.74 6.90 122.74 5.11C122.74 3.35 121.52 2.21 119.62 2.21L115.18 2.21L115.18 11.48L116.23 11.48ZM116.23 3.21L119.49 3.21C120.81 3.21 121.69 3.93 121.69 5.11C121.69 6.55 120.43 6.93 119.43 6.93L116.23 6.93ZM135.70 2.21L134.39 2.21L130.45 11.48L131.61 11.48L132.75 8.79L137.34 8.79L138.47 11.48L139.64 11.48ZM133.15 7.83L135.04 3.30L136.93 7.83ZM161.95 2.21L160.64 2.21L156.70 11.48L157.86 11.48L159.00 8.79L163.59 8.79L164.72 11.48L165.89 11.48ZM159.40 7.83L161.29 3.30L163.18 7.83ZM174.06 2.21L174.06 11.48L180.17 11.48L180.17 10.47L175.11 10.47L175.11 2.21ZM206.30 2.21L203.04 6.61L199.72 2.21L198.51 2.21L198.51 11.48L199.56 11.48L199.56 3.81L203.04 8.22L206.47 3.81L206.47 11.48L207.52 11.48L207.52 2.21ZM220.91 2.10C218.09 2.10 216.20 4.21 216.20 6.85C216.20 9.48 218.09 11.59 220.91 11.59C223.72 11.59 225.61 9.48 225.61 6.85C225.61 4.21 223.72 2.10 220.91 2.10ZM220.91 10.57C218.65 10.57 217.25 8.93 217.25 6.85C217.25 4.76 218.65 3.12 220.91 3.12C223.16 3.12 224.56 4.76 224.56 6.85C224.56 8.93 223.16 10.57 220.91 10.57ZM241.23 2.21L241.23 10.01L235.51 2.21L234.29 2.21L234.29 11.48L235.34 11.48L235.34 3.65L241.07 11.48L242.28 11.48L242.28 2.21ZM252.60 2.21L251.55 2.21L251.55 11.48L252.60 11.48ZM268.45 2.21L260.93 2.21L260.93 3.22L264.17 3.22L264.17 11.48L265.22 11.48L265.22 3.22L268.45 3.22ZM280.50 2.10C277.69 2.10 275.80 4.21 275.80 6.85C275.80 9.48 277.69 11.59 280.50 11.59C283.32 11.59 285.21 9.48 285.21 6.85C285.21 4.21 283.32 2.10 280.50 2.10ZM280.50 10.57C278.25 10.57 276.85 8.93 276.85 6.85C276.85 4.76 278.25 3.12 280.50 3.12C282.76 3.12 284.16 4.76 284.16 6.85C284.16 8.93 282.76 10.57 280.50 10.57ZM294.94 7.92L298.16 7.92L300.40 11.48L301.64 11.48L299.21 7.74C300.24 7.50 301.45 6.90 301.45 5.11C301.45 3.35 300.23 2.21 298.33 2.21L293.89 2.21L293.89 11.48L294.94 11.48ZM294.94 3.21L298.20 3.21C299.52 3.21 300.40 3.93 300.40 5.11C300.40 6.55 299.14 6.93 298.14 6.93L294.94 6.93ZM321.29 2.21L320.24 2.21L320.24 11.48L321.29 11.48ZM334.46 2.21L330.55 2.21L330.55 11.48L334.46 11.48C336.67 11.48 338.72 9.74 338.72 6.85C338.72 3.95 336.67 2.21 334.46 2.21ZM334.42 10.49L331.60 10.49L331.60 3.21L334.42 3.21C336.39 3.21 337.67 4.86 337.67 6.85C337.67 8.83 336.39 10.49 334.42 10.49ZM354.23 3.22L354.23 2.21L347.41 2.21L347.41 11.48L354.23 11.48L354.23 10.47L348.46 10.47L348.46 7.35L353.61 7.35L353.61 6.33L348.46 6.33L348.46 3.22ZM367.08 2.21L365.76 2.21L361.83 11.48L362.99 11.48L364.13 8.79L368.72 8.79L369.85 11.48L371.01 11.48ZM364.53 7.83L366.42 3.30L368.31 7.83ZM379.19 2.21L379.19 11.48L385.29 11.48L385.29 10.47L380.24 10.47L380.24 2.21ZM404.68 8.18L407.81 8.18C409.78 8.18 411.00 7.03 411.00 5.19C411.00 3.37 409.78 2.21 407.81 2.21L403.63 2.21L403.63 11.48L404.68 11.48ZM407.74 3.21C409.19 3.21 409.95 3.96 409.95 5.19C409.95 6.44 409.19 7.20 407.74 7.20L404.68 7.20L404.68 3.21ZM423.09 2.21L421.78 2.21L417.84 11.48L419.01 11.48L420.14 8.79L424.73 8.79L425.87 11.48L427.03 11.48ZM420.55 7.83L422.44 3.30L424.33 7.83ZM436.25 7.92L439.47 7.92L441.71 11.48L442.96 11.48L440.52 7.74C441.56 7.50 442.76 6.90 442.76 5.11C442.76 3.35 441.55 2.21 439.64 2.21L435.20 2.21L435.20 11.48L436.25 11.48ZM436.25 3.21L439.52 3.21C440.83 3.21 441.71 3.93 441.71 5.11C441.71 6.55 440.45 6.93 439.46 6.93L436.25 6.93ZM455.73 2.21L454.41 2.21L450.48 11.48L451.64 11.48L452.77 8.79L457.37 8.79L458.50 11.48L459.66 11.48ZM453.18 7.83L455.07 3.30L456.96 7.83ZM484.40 2.21L476.88 2.21L476.88 3.22L480.12 3.22L480.12 11.48L481.17 11.48L481.17 3.22L484.40 3.22ZM493.78 2.21L492.73 2.21L492.73 11.48L493.78 11.48ZM517.01 10.57C514.75 10.57 513.49 8.93 513.49 6.85C513.49 4.76 514.75 3.12 517.01 3.12C518.53 3.12 519.54 3.85 520.02 4.98L521.12 4.98C520.53 3.29 519.02 2.10 516.92 2.10C514.14 2.10 512.44 4.21 512.44 6.85C512.44 9.48 514.14 11.59 516.92 11.59C519.02 11.59 520.53 10.40 521.12 8.71L520.02 8.71C519.54 9.84 518.53 10.57 517.01 10.57ZM533.74 2.10C530.92 2.10 529.03 4.21 529.03 6.85C529.03 9.48 530.92 11.59 533.74 11.59C536.55 11.59 538.44 9.48 538.44 6.85C538.44 4.21 536.55 2.10 533.74 2.10ZM533.74 10.57C531.48 10.57 530.08 8.93 530.08 6.85C530.08 4.76 531.48 3.12 533.74 3.12C535.99 3.12 537.39 4.76 537.39 6.85C537.39 8.93 535.99 10.57 533.74 10.57ZM554.06 2.21L554.06 10.01L548.34 2.21L547.12 2.21L547.12 11.48L548.17 11.48L548.17 3.65L553.90 11.48L555.11 11.48L555.11 2.21ZM582.16 2.21L578.90 6.61L575.58 2.21L574.36 2.21L574.36 11.48L575.41 11.48L575.41 3.81L578.90 8.22L582.33 3.81L582.33 11.48L583.38 11.48L583.38 2.21ZM596.76 2.10C593.95 2.10 592.06 4.21 592.06 6.85C592.06 9.48 593.95 11.59 596.76 11.59C599.58 11.59 601.47 9.48 601.47 6.85C601.47 4.21 599.58 2.10 596.76 2.10ZM596.76 10.57C594.51 10.57 593.11 8.93 593.11 6.85C593.11 4.76 594.51 3.12 596.76 3.12C599.02 3.12 600.42 4.76 600.42 6.85C600.42 8.93 599.02 10.57 596.76 10.57ZM617.09 2.21L617.09 10.01L611.37 2.21L610.15 2.21L610.15 11.48L611.20 11.48L611.20 3.65L616.92 11.48L618.14 11.48L618.14 2.21ZM628.46 2.21L627.41 2.21L627.41 11.48L628.46 11.48ZM644.31 2.21L636.79 2.21L636.79 3.22L640.02 3.22L640.02 11.48L641.07 11.48L641.07 3.22L644.31 3.22ZM656.36 2.10C653.55 2.10 651.66 4.21 651.66 6.85C651.66 9.48 653.55 11.59 656.36 11.59C659.18 11.59 661.07 9.48 661.07 6.85C661.07 4.21 659.18 2.10 656.36 2.10ZM656.36 10.57C654.11 10.57 652.71 8.93 652.71 6.85C652.71 4.76 654.11 3.12 656.36 3.12C658.62 3.12 660.02 4.76 660.02 6.85C660.02 8.93 658.62 10.57 656.36 10.57ZM676.47 2.21L676.47 7.52C676.47 9.67 675.04 10.57 673.57 10.57C672.10 10.57 670.68 9.67 670.68 7.52L670.68 2.21L669.63 2.21L669.63 7.49C669.63 9.95 671.26 11.59 673.57 11.59C675.89 11.59 677.52 9.94 677.52 7.49L677.52 2.21ZM687.72 7.92L690.94 7.92L693.18 11.48L694.43 11.48L691.99 7.74C693.03 7.50 694.23 6.90 694.23 5.11C694.23 3.35 693.01 2.21 691.11 2.21L686.67 2.21L686.67 11.48L687.72 11.48ZM687.72 3.21L690.98 3.21C692.30 3.21 693.18 3.93 693.18 5.11C693.18 6.55 691.92 6.93 690.93 6.93L687.72 6.93Z"></path></g></svg>