<svg data-v-423bf9ae="" xmlns="http://www.w3.org/2000/svg" viewBox="0 0 349.3361895912679 60" class="font"><!----><!----><!----><g data-v-423bf9ae="" id="1852aa1f-6acd-4ed9-a966-5250065e194b" fill="black" transform="matrix(6.423982764430195,0,0,6.423982764430195,-4.304072594306092,-8.28693656738514)"><path d="M1.43 10.50L0.67 10.50L0.67 1.33L1.41 1.33L3.39 6.47L3.60 6.47L5.57 1.33L6.31 1.33L6.31 10.50L5.56 10.50L5.56 3.39L5.50 3.39L4.03 7.18L2.95 7.18L1.48 3.37L1.43 3.37L1.43 10.50ZM7.83 7.20L7.83 7.20L7.83 7.20Q7.83 3.77 10.50 3.77L10.50 3.77L10.50 3.77Q13.17 3.77 13.17 7.20L13.17 7.20L13.17 7.20Q13.17 10.63 10.50 10.63L10.50 10.63L10.50 10.63Q7.83 10.63 7.83 7.20ZM10.50 4.49L10.50 4.49L10.50 4.49Q8.62 4.49 8.62 7.20L8.62 7.20L8.62 7.20Q8.62 9.90 10.50 9.90L10.50 9.90L10.50 9.90Q12.38 9.90 12.38 7.20L12.38 7.20L12.38 7.20Q12.38 4.49 10.50 4.49ZM15.06 3.85L15.78 3.85L15.81 4.41L15.81 4.41Q17.16 3.77 18.06 3.77L18.06 3.77L18.06 3.77Q18.96 3.77 19.47 4.38L19.47 4.38L19.47 4.38Q19.98 5.00 19.98 6.06L19.98 6.06L19.98 10.50L19.24 10.50L19.24 6.06L19.24 6.06Q19.24 5.38 18.90 4.93L18.90 4.93L18.90 4.93Q18.56 4.49 17.89 4.49L17.89 4.49L17.89 4.49Q17.22 4.49 15.81 5.11L15.81 5.11L15.81 10.50L15.06 10.50L15.06 3.85ZM24.35 4.55L22.72 4.55L22.72 3.85L25.09 3.85L25.09 9.80L26.71 9.80L26.71 10.50L22.61 10.50L22.61 9.80L24.35 9.80L24.35 4.55ZM24.65 2.51L24.65 2.51L24.65 2.51Q24.40 2.51 24.23 2.33L24.23 2.33L24.23 2.33Q24.05 2.16 24.05 1.88L24.05 1.88L24.05 1.88Q24.05 1.61 24.23 1.45L24.23 1.45L24.23 1.45Q24.40 1.29 24.65 1.29L24.65 1.29L24.65 1.29Q24.91 1.29 25.07 1.44L25.07 1.44L25.07 1.44Q25.23 1.60 25.23 1.88L25.23 1.88L25.23 1.88Q25.23 2.16 25.07 2.33L25.07 2.33L25.07 2.33Q24.91 2.51 24.65 2.51ZM31.09 2.04L28.67 2.04L28.67 1.33L34.30 1.33L34.30 2.04L31.86 2.04L31.86 10.50L31.09 10.50L31.09 2.04ZM35.83 7.20L35.83 7.20L35.83 7.20Q35.83 3.77 38.50 3.77L38.50 3.77L38.50 3.77Q41.17 3.77 41.17 7.20L41.17 7.20L41.17 7.20Q41.17 10.63 38.50 10.63L38.50 10.63L38.50 10.63Q35.83 10.63 35.83 7.20ZM38.50 4.49L38.50 4.49L38.50 4.49Q36.62 4.49 36.62 7.20L36.62 7.20L36.62 7.20Q36.62 9.90 38.50 9.90L38.50 9.90L38.50 9.90Q40.38 9.90 40.38 7.20L40.38 7.20L40.38 7.20Q40.38 4.49 38.50 4.49ZM47.95 10.50L47.24 10.50L47.21 9.93L47.21 9.93Q45.86 10.63 44.97 10.63L44.97 10.63L44.97 10.63Q44.07 10.63 43.55 10.01L43.55 10.01L43.55 10.01Q43.04 9.39 43.04 8.33L43.04 8.33L43.04 3.85L43.78 3.85L43.78 8.33L43.78 8.33Q43.78 9.02 44.11 9.46L44.11 9.46L44.11 9.46Q44.44 9.90 45.11 9.90L45.11 9.90L45.11 9.90Q45.78 9.90 47.21 9.20L47.21 9.20L47.21 3.85L47.95 3.85L47.95 10.50ZM51.59 4.55L50.27 4.55L50.27 3.85L52.33 3.85L52.36 4.66L52.36 4.66Q52.81 4.38 53.62 4.10L53.62 4.10L53.62 4.10Q54.43 3.82 55.05 3.77L55.05 3.77L55.05 4.59L55.05 4.59Q54.47 4.63 53.63 4.87L53.63 4.87L53.63 4.87Q52.78 5.11 52.36 5.36L52.36 5.36L52.36 9.80L54.60 9.80L54.60 10.50L50.27 10.50L50.27 9.80L51.59 9.80L51.59 4.55Z"></path></g><!----><!----></svg>