<svg data-v-423bf9ae="" xmlns="http://www.w3.org/2000/svg" viewBox="0 0 313.83783447548 60" class="font"><!----><!----><!----><g data-v-423bf9ae="" id="972ee67c-6a0a-48f2-bbfb-7d41bcb41adf" fill="black" transform="matrix(5.405405219639779,0,0,5.405405219639779,-4.594593551317445,2.270269388391469)"><path d="M9.16 5.10L9.21 2.84L6.87 10.50L5.00 10.50L2.67 2.84L2.73 5.10L2.73 10.50L0.85 10.50L0.85-0.42L3.61-0.42L5.94 7.25L8.27-0.42L11.03-0.42L11.03 10.50L9.16 10.50L9.16 5.10ZM18.27 9.68L18.27 9.68L18.27 9.68Q17.43 10.68 15.75 10.68L15.75 10.68L15.75 10.68Q14.07 10.68 13.23 9.68L13.23 9.68L13.23 9.68Q12.39 8.68 12.39 7.01L12.39 7.01L12.39 6.57L12.39 6.57Q12.39 4.89 13.23 3.89L13.23 3.89L13.23 3.89Q14.07 2.90 15.75 2.90L15.75 2.90L15.75 2.90Q17.43 2.90 18.27 3.89L18.27 3.89L18.27 3.89Q19.11 4.89 19.11 6.57L19.11 6.57L19.11 7.01L19.11 7.01Q19.11 8.68 18.27 9.68ZM14.21 7.01L14.21 7.01Q14.21 9.09 15.75 9.09L15.75 9.09L15.75 9.09Q17.29 9.09 17.29 7.01L17.29 7.01L17.29 6.57L17.29 6.57Q17.29 4.48 15.75 4.48L15.75 4.48L15.75 4.48Q14.21 4.48 14.21 6.57L14.21 6.57L14.21 7.01ZM26.78 5.42L26.78 10.50L24.98 10.50L24.98 5.71L24.98 5.71Q24.98 5.15 24.68 4.82L24.68 4.82L24.68 4.82Q24.39 4.48 23.80 4.48L23.80 4.48L23.80 4.48Q22.78 4.48 22.26 5.33L22.26 5.33L22.26 10.50L20.44 10.50L20.44 5.18L20.31 3.08L21.92 3.08L22.09 4.06L22.09 4.06Q22.89 2.90 24.50 2.90L24.50 2.90L24.50 2.90Q25.65 2.90 26.21 3.61L26.21 3.61L26.21 3.61Q26.78 4.33 26.78 5.42L26.78 5.42ZM30.17 10.50L28.35 10.50L28.35 3.08L30.17 3.08L30.17 10.50ZM28.27-0.18L30.25-0.18L30.25 1.79L28.27 1.79L28.27-0.18ZM38.36 1.22L35.76 1.22L35.76 10.50L33.88 10.50L33.88 1.22L31.28 1.22L31.28-0.42L38.36-0.42L38.36 1.22ZM45.01 9.68L45.01 9.68L45.01 9.68Q44.17 10.68 42.49 10.68L42.49 10.68L42.49 10.68Q40.81 10.68 39.97 9.68L39.97 9.68L39.97 9.68Q39.13 8.68 39.13 7.01L39.13 7.01L39.13 6.57L39.13 6.57Q39.13 4.89 39.97 3.89L39.97 3.89L39.97 3.89Q40.81 2.90 42.49 2.90L42.49 2.90L42.49 2.90Q44.17 2.90 45.01 3.89L45.01 3.89L45.01 3.89Q45.85 4.89 45.85 6.57L45.85 6.57L45.85 7.01L45.85 7.01Q45.85 8.68 45.01 9.68ZM40.95 7.01L40.95 7.01Q40.95 9.09 42.49 9.09L42.49 9.09L42.49 9.09Q44.03 9.09 44.03 7.01L44.03 7.01L44.03 6.57L44.03 6.57Q44.03 4.48 42.49 4.48L42.49 4.48L42.49 4.48Q40.95 4.48 40.95 6.57L40.95 6.57L40.95 7.01ZM47.10 8.15L47.10 3.08L48.90 3.08L48.90 7.87L48.90 7.87Q48.90 9.09 50.09 9.09L50.09 9.09L50.09 9.09Q51.10 9.09 51.63 8.25L51.63 8.25L51.63 3.08L53.45 3.08L53.45 8.40L53.56 10.50L51.95 10.50L51.79 9.52L51.79 9.52Q50.99 10.68 49.38 10.68L49.38 10.68L49.38 10.68Q48.23 10.68 47.66 9.97L47.66 9.97L47.66 9.97Q47.10 9.25 47.10 8.15L47.10 8.15ZM58.70 2.90L58.70 2.90L58.70 2.90Q58.74 2.90 58.82 2.91L58.82 2.91L58.82 2.91Q58.90 2.91 58.91 2.91L58.91 2.91L58.91 4.68L58.60 4.68L58.60 4.68Q57.40 4.68 56.88 5.46L56.88 5.46L56.88 10.50L55.06 10.50L55.06 5.18L54.94 3.08L56.55 3.08L56.70 3.98L56.70 3.98Q57.44 2.90 58.70 2.90Z"></path></g><!----><!----></svg>